<svg width="19" height="20" viewBox="0 0 19 20" fill="none" xmlns="http://www.w3.org/2000/svg">
<path id="ico-logout" fill-rule="evenodd" clip-rule="evenodd" d="M14.1187 0.539999C13.7822 0.198081 13.3238 0.00385452 12.8433 0H1.80043L1.6212 0.00985494C1.20626 0.0533553 0.817305 0.239032 0.521886 0.538279C0.184269 0.880261 -0.00346943 1.3425 4.85651e-05 1.82307L4.58588e-05 18.1777L0.00761185 18.3566C0.0458071 18.7712 0.226471 19.1625 0.521885 19.4618C0.859576 19.8038 1.3194 19.9974 1.79989 20H12.8433L13.0222 19.9897C13.4364 19.9453 13.8242 19.7592 14.1187 19.4601C14.4551 19.1182 14.642 18.6566 14.6382 18.1769L14.6382 16.0274L14.6297 15.9162C14.5963 15.6972 14.4653 15.5026 14.2701 15.3898C14.0422 15.2583 13.7616 15.2583 13.5339 15.3898C13.3061 15.5214 13.1657 15.7644 13.1657 16.0274V17.7487L13.159 17.8506C13.1102 18.2172 12.7986 18.5013 12.4187 18.5057L2.21839 18.5057L2.10075 18.4957C1.94612 18.4702 1.80214 18.396 1.69078 18.2825C1.55162 18.1406 1.47499 17.949 1.47797 17.7502L1.47798 2.25129L1.48406 2.14955C1.53082 1.78337 1.84088 1.49902 2.21962 1.49438L12.4198 1.49438L12.5216 1.50196C12.8874 1.55427 13.168 1.87039 13.1657 2.25069L13.1657 3.97811L13.1741 4.08934C13.2076 4.30829 13.3386 4.50296 13.5339 4.61568C13.7616 4.74719 14.0422 4.74719 14.27 4.61568C14.4978 4.48418 14.6382 4.24114 14.6382 3.97811V1.82233L14.6307 1.64375C14.5929 1.2299 14.4131 0.839138 14.1187 0.539999ZM15.8732 6.86685C15.7478 6.77542 15.596 6.72533 15.4391 6.72533C15.2428 6.72533 15.0547 6.80361 14.9165 6.94279L14.8391 7.03581L14.779 7.13716C14.6414 7.41669 14.6872 7.76285 14.9158 7.99739L16.3687 9.46971L8.80676 9.47021L8.70537 9.47703C8.34066 9.52651 8.05955 9.83912 8.05955 10.2174L8.06637 10.3188L8.08891 10.4255C8.17903 10.7369 8.46631 10.9646 8.80676 10.9646L16.2031 10.9636L14.9163 12.2664L14.839 12.3593C14.6329 12.6518 14.6586 13.057 14.9158 13.3208C15.0547 13.4607 15.2429 13.539 15.4391 13.539C15.6352 13.539 15.8233 13.4607 15.9617 13.3215L18.3377 10.9126L18.3979 10.9059C18.4833 10.8857 18.5866 10.822 18.669 10.7351C18.9456 10.3764 18.9456 9.88797 18.6758 9.53712C18.5661 9.42056 18.4304 9.34824 18.2827 9.32316L15.962 6.94304L15.8732 6.86685Z" fill="#7D849B"/>
</svg>
