<svg width="24" height="24" viewBox="0 0 24 24" fill="none" xmlns="http://www.w3.org/2000/svg">
<g id="ico-google">
<path id="&#232;&#183;&#175;&#229;&#190;&#132;" d="M5.01973 12.0001C5.01973 11.2208 5.15268 10.4731 5.38792 9.77255L1.25801 6.68382C0.428242 8.33299 -0.00265657 10.154 1.23226e-05 12.0001C1.23226e-05 13.9106 0.452073 15.7128 1.25596 17.3124L5.38383 14.2185C5.14314 13.5036 5.02017 12.7544 5.01973 12.0001Z" fill="#FBBC05"/>
<path id="&#232;&#183;&#175;&#229;&#190;&#132;_2" d="M12.273 4.90926C14.0014 4.90926 15.5632 5.50859 16.7905 6.49044L20.361 2.99976C18.1855 1.14549 15.3965 0 12.273 0C7.42302 0 3.25424 2.71543 1.25781 6.68375L5.38977 9.77249C6.34094 6.94353 9.0533 4.90926 12.273 4.90926Z" fill="#EA4335"/>
<path id="&#232;&#183;&#175;&#229;&#190;&#132;_3" d="M12.273 19.0907C9.05228 19.0907 6.33991 17.0565 5.38772 14.2275L1.25781 17.3162C3.25322 21.2846 7.422 24 12.273 24C15.2656 24 18.1231 22.9598 20.2689 21.0094L16.3476 18.0414C15.242 18.7236 13.849 19.0907 12.2719 19.0907" fill="#34A853"/>
<path id="&#232;&#183;&#175;&#229;&#190;&#132;_4" d="M23.9882 12.0001C23.9882 11.2914 23.8757 10.5274 23.709 9.8186H12.2725V14.4548H18.855C18.5266 16.036 17.6307 17.251 16.3492 18.0416L20.2694 21.0097C22.5226 18.9621 23.9882 15.9122 23.9882 12.0001Z" fill="#4285F4"/>
</g>
</svg>
